<svg width="1600" height="900" viewBox="0 0 1600 900" fill="none" xmlns="http://www.w3.org/2000/svg">
  <defs>
    <linearGradient id="backdrop" x1="0" y1="0" x2="1600" y2="900" gradientUnits="userSpaceOnUse">
      <stop stop-color="#160708"/>
      <stop offset="0.55" stop-color="#2A0808"/>
      <stop offset="1" stop-color="#050304"/>
    </linearGradient>
    <linearGradient id="sunset" x1="800" y1="180" x2="800" y2="760" gradientUnits="userSpaceOnUse">
      <stop stop-color="#FFF2B8"/>
      <stop offset="0.18" stop-color="#FFA463"/>
      <stop offset="0.48" stop-color="#D55A38"/>
      <stop offset="0.78" stop-color="#6A291D"/>
      <stop offset="1" stop-color="#26100F"/>
    </linearGradient>
    <radialGradient id="spotlight" cx="0" cy="0" r="1" gradientUnits="userSpaceOnUse" gradientTransform="translate(820 300) rotate(90) scale(300 420)">
      <stop stop-color="#FFD59A" stop-opacity="0.72"/>
      <stop offset="1" stop-color="#FFD59A" stop-opacity="0"/>
    </radialGradient>
    <linearGradient id="gold" x1="0" y1="0" x2="1" y2="1">
      <stop stop-color="#FFF2A8"/>
      <stop offset="0.3" stop-color="#E8C454"/>
      <stop offset="0.7" stop-color="#B78A1D"/>
      <stop offset="1" stop-color="#F6D977"/>
    </linearGradient>
    <filter id="shadow" x="0" y="0" width="1600" height="900" filterUnits="userSpaceOnUse" color-interpolation-filters="sRGB">
      <feDropShadow dx="0" dy="12" stdDeviation="14" flood-color="#000000" flood-opacity="0.55"/>
    </filter>
  </defs>

  <rect width="1600" height="900" fill="url(#backdrop)"/>
  <rect width="1600" height="900" fill="url(#spotlight)"/>

  <g opacity="0.95">
    <path d="M0 0H280L210 190L255 545L0 900V0Z" fill="#450A0D"/>
    <path d="M1600 0H1320L1390 190L1345 545L1600 900V0Z" fill="#450A0D"/>
    <path d="M220 0H1380C1295 98 1135 155 800 155C465 155 305 98 220 0Z" fill="#5A0D10"/>
    <path d="M30 0H250C200 78 186 174 208 286C147 243 90 201 30 158V0Z" fill="#6D0F14" opacity="0.9"/>
    <path d="M1570 0H1350C1400 78 1414 174 1392 286C1453 243 1510 201 1570 158V0Z" fill="#6D0F14" opacity="0.9"/>
  </g>

  <g filter="url(#shadow)">
    <rect x="220" y="82" width="1160" height="736" rx="6" stroke="url(#gold)" stroke-width="10"/>
    <path d="M250 82H575" stroke="url(#gold)" stroke-width="12" stroke-linecap="round"/>
    <path d="M1025 82H1350" stroke="url(#gold)" stroke-width="12" stroke-linecap="round"/>
    <path d="M250 818H575" stroke="url(#gold)" stroke-width="12" stroke-linecap="round"/>
    <path d="M1025 818H1350" stroke="url(#gold)" stroke-width="12" stroke-linecap="round"/>
    <circle cx="265" cy="125" r="10" fill="url(#gold)"/>
    <circle cx="1335" cy="125" r="10" fill="url(#gold)"/>
    <circle cx="265" cy="775" r="10" fill="url(#gold)"/>
    <circle cx="1335" cy="775" r="10" fill="url(#gold)"/>
  </g>

  <g>
    <path d="M355 196H1245V720H355V196Z" fill="url(#sunset)"/>
    <path d="M355 572C429 532 541 525 635 549C723 573 843 583 949 559C1042 538 1165 546 1245 589V720H355V572Z" fill="#8A4B2D"/>
    <path d="M355 624C453 592 560 598 657 628C773 665 876 668 977 634C1071 603 1172 602 1245 631V720H355V624Z" fill="#6D3924"/>
    <circle cx="818" cy="282" r="150" fill="#FFD290" opacity="0.28"/>
    <ellipse cx="826" cy="308" rx="180" ry="132" fill="#F8A05C" opacity="0.22"/>
    <ellipse cx="828" cy="278" rx="110" ry="76" fill="#FFF1CF" opacity="0.16"/>
  </g>

  <g opacity="0.2">
    <ellipse cx="863" cy="265" rx="150" ry="76" fill="#FFF4D7"/>
    <path d="M730 290C770 250 840 237 903 262C934 274 966 297 983 329C905 324 809 317 730 290Z" fill="#FFF4D7"/>
  </g>

  <g fill="#120E0D" opacity="0.85">
    <path d="M678 640C657 610 638 560 640 512C642 447 657 386 697 343C732 307 779 292 823 292C842 292 862 295 882 301C859 316 839 346 834 381C826 433 847 470 873 503C902 540 937 574 954 624C874 653 754 660 678 640Z"/>
    <path d="M539 651C516 620 490 555 495 482C500 396 539 323 607 284C638 266 675 260 710 267C656 299 620 358 610 431C602 492 611 562 629 620C603 641 571 651 539 651Z"/>
    <path d="M683 330C656 365 635 415 632 466C627 546 656 620 695 663L630 666C574 613 547 541 554 461C561 384 594 317 650 278L683 330Z" opacity="0.45"/>
  </g>

  <g opacity="0.35" fill="#110909">
    <path d="M210 628C256 570 315 545 386 550L324 650L210 628Z"/>
    <path d="M1390 628C1344 570 1285 545 1214 550L1276 650L1390 628Z"/>
    <path d="M288 688C325 619 395 579 487 570L412 705L288 688Z"/>
    <path d="M1312 688C1275 619 1205 579 1113 570L1188 705L1312 688Z"/>
  </g>

  <g fill="url(#gold)" font-family="Georgia, 'Times New Roman', serif" text-anchor="middle">
    <text x="800" y="118" font-size="64" font-weight="700">On Cinema at the Cinema</text>
    <text x="800" y="520" font-size="78" font-weight="700">The</text>
    <text x="800" y="650" font-size="126" font-weight="700" letter-spacing="4">LAST OSCAR SPECIAL</text>
    <text x="800" y="740" font-size="58" font-weight="700">March 15 • 7PM ET / 4PM PT</text>
    <text x="800" y="816" font-size="54" font-weight="700" letter-spacing="3">ONLY ON THE HEI NETWORK</text>
  </g>
</svg>
